<?xml version="1.0" encoding="UTF-8"?>
<svg id="Layer_1" data-name="Layer 1" xmlns="http://www.w3.org/2000/svg" version="1.1" viewBox="0 0 841.89 191.57">
  <defs>
    <style>
      .cls-1 {
        fill: #f39600;
        stroke-width: 0px;
      }
    </style>
  </defs>
  <path class="cls-1" d="M349.13,42.02c-23.08,0-43.32,6.49-57.59,18.55-14.27-12.06-34.51-18.55-57.59-18.55-45.04,0-79.33,24.66-79.33,67.35s34.3,67.08,79.33,67.08c23.08,0,43.32-6.49,57.59-18.51,14.27,12.02,34.51,18.51,57.59,18.51,45.04,0,79.34-24.66,79.34-67.08s-34.3-67.35-79.34-67.35ZM233.95,145.37c-21.72,0-30.63-17.01-30.63-36s8.91-36.26,30.63-36.26,30.64,17.02,30.64,36.26-8.9,36-30.64,36ZM349.13,145.37c-21.74,0-30.64-17.01-30.64-36s8.9-36.26,30.64-36.26,30.64,17.02,30.64,36.26-8.91,36-30.64,36Z"/>
  <path class="cls-1" d="M442.17,17.15c.49-4.63,3.78-8.36,8.39-8.36h22.34c4.61,0,7.96,3.75,8.39,8.36,0,0,3.36,24.21,3.36,76.3s-3.36,73.81-3.36,73.81c-.69,4.67-3.78,8.35-8.39,8.35h-22.34c-4.62,0-7.57-3.57-8.39-8.35,0,0-3.37-20.02-3.37-73.81s3.37-76.3,3.37-76.3"/>
  <path class="cls-1" d="M499.44,17.15c.54-4.59,3.78-8.36,8.39-8.36h22.35c4.61,0,8.39,3.76,8.39,8.36v82.98c0,4.59.1,8.35.21,8.35.12,0,3.33-5.2,5.95-8.99l23.12-33.59c2.6-3.77,8.52-6.88,13.13-6.88h26.03c4.62,0,6.12,2.99,3.33,6.67l-29.21,38.38c-2.79,3.65-3.9,13.49-1.26,17.27l33.03,47.27c2.63,3.79,1.01,6.85-3.61,6.85h-30.61c-4.62,0-10.24-3.26-12.48-7.29l-23.12-41.23c-2.25-3.99-4.2-7.26-4.32-7.26-.11,0-.21,3.76-.21,8.33v39.1c0,4.6-3.78,8.35-8.39,8.35h-22.35c-4.61,0-7.8-3.64-8.39-8.35,0,0-3.36-20.53-3.36-73.98s3.36-76,3.36-76"/>
  <path class="cls-1" d="M665.34,33.91c0,4.59-3.78,8.35-8.4,8.35h-22.34c-4.62,0-8.39-3.76-8.39-8.35l.1-16.69c0-4.59,3.77-8.36,8.4-8.36h22.33c4.62,0,8.4,3.76,8.4,8.36l-.1,16.69Z"/>
  <path class="cls-1" d="M626.16,67.23c1.32-4.64,3.79-8.33,8.4-8.33h22.34c4.62,0,6.97,3.37,8.4,8.33,0,0,3.35,17.52,3.35,50.52s-3.35,49.37-3.35,49.37c-.91,4.7-3.78,8.55-8.4,8.55h-22.34c-4.61,0-7.48-3.85-8.4-8.55,0,0-3.35-16.05-3.35-49.37s3.35-50.52,3.35-50.52"/>
  <path class="cls-1" d="M155.75,24.53h-27.94c-4.62,0-9.42,3.63-10.68,8.05l-29.13,102.97c-1.16,4.1-2.28,7.81-2.54,8.33-.28-.58-1.45-4.26-2.6-8.33l-29.13-102.97c-1.26-4.42-6.06-8.05-10.68-8.05H15.13c-4.62,0-6.58,3.03-5.72,7.94,0,0,2.49,22.28,17.61,67.57,15.13,45.28,26.02,64.77,27.92,67.65,5.45,8.29,18.67,11.31,30.4,11.28h.2c11.72.04,24.95-2.98,30.4-11.28,1.9-2.88,12.8-22.36,27.92-67.65,15.12-45.29,17.62-67.57,17.62-67.57.86-4.91-1.11-7.94-5.72-7.94"/>
  <path class="cls-1" d="M681.71,175.48h27.95c4.6,0,9.42-3.64,10.66-8.07l29.13-102.97c1.16-4.09,2.29-7.78,2.55-8.35.27.63,1.45,4.31,2.6,8.35l29.12,102.97c1.26,4.44,6.06,8.07,10.69,8.07h27.94c4.61,0,6.58-3.04,5.71-7.94,0,0-2.49-22.28-17.63-67.55-15.12-45.31-26.01-64.79-27.9-67.68-5.46-8.29-18.68-11.3-30.42-11.28h-.19c-11.73-.02-24.95,2.99-30.4,11.28-1.9,2.89-12.79,22.37-27.92,67.68-15.12,45.27-17.61,67.55-17.61,67.55-.86,4.9,1.1,7.94,5.72,7.94"/>
</svg>