<svg xmlns="http://www.w3.org/2000/svg" viewBox="0 0 200 200">
  <rect width="200" height="200" rx="40" fill="#2A0E04"/>
  <g transform="translate(12.5 0)">
    <path fill="#FF6B1A" d="M155.75,24.53h-27.94c-4.62,0-9.42,3.63-10.68,8.05l-29.13,102.97c-1.16,4.1-2.28,7.81-2.54,8.33-.28-.58-1.45-4.26-2.6-8.33l-29.13-102.97c-1.26-4.42-6.06-8.05-10.68-8.05H15.13c-4.62,0-6.58,3.03-5.72,7.94,0,0,2.49,22.28,17.61,67.57,15.13,45.28,26.02,64.77,27.92,67.65,5.45,8.29,18.67,11.31,30.4,11.28h.2c11.72.04,24.95-2.98,30.4-11.28,1.9-2.88,12.8-22.36,27.92-67.65,15.12-45.29,17.62-67.57,17.62-67.57.86-4.91-1.11-7.94-5.72-7.94"/>
  </g>
</svg>
